<?xml version="1.0" encoding="UTF-8"?>
<svg version="1.1" xmlns="http://www.w3.org/2000/svg" width="1024" height="1024">
<path d="M0 0 C337.92 0 675.84 0 1024 0 C1024 337.92 1024 675.84 1024 1024 C686.08 1024 348.16 1024 0 1024 C0 686.08 0 348.16 0 0 Z " fill="#E3363D" transform="translate(0,0)"/>
<path d="M0 0 C1.65857712 1.49223016 3.30413099 2.99920929 4.9296875 4.52734375 C7.12568924 6.61338029 7.12568924 6.61338029 9.59765625 8.43359375 C12.63190222 10.9752975 15.04144012 13.83681346 17.4609375 16.9453125 C17.93732666 17.55600586 18.41371582 18.16669922 18.90454102 18.79589844 C35.1484375 40.09096797 35.1484375 40.09096797 35.1484375 50.5703125 C19.68830467 57.71091942 4.10110774 64.51998822 -11.57568359 71.17041016 C-14.63087115 72.47600305 -17.67448339 73.80484463 -20.71484375 75.14453125 C-21.59180908 75.52657715 -22.46877441 75.90862305 -23.37231445 76.30224609 C-24.9749915 77.00076393 -26.57409129 77.70757362 -28.16870117 78.42431641 C-34.11123793 80.99017857 -34.11123793 80.99017857 -37.8515625 79.5703125 C-39.4921875 77.3828125 -39.4921875 77.3828125 -41.1015625 74.5703125 C-49.99297507 59.99670208 -61.58320768 51.33523974 -78.17578125 46.95703125 C-95.29729052 44.48253575 -110.57749707 47.58873581 -124.8515625 57.5703125 C-138.71707737 68.51804076 -147.52461891 88.8665932 -149.63623047 106.14013672 C-151.9506456 132.25996463 -148.92521231 156.42373206 -132.3046875 177.53515625 C-123.69932873 186.92862956 -109.25235556 194.9732002 -96.32128906 195.71557617 C-93.24793548 195.74024151 -90.17502257 195.7559699 -87.1015625 195.7578125 C-86.04195312 195.77005859 -84.98234375 195.78230469 -83.890625 195.79492188 C-75.27824331 195.81094988 -68.50788513 194.6899742 -60.7265625 190.7578125 C-59.75460937 190.27699219 -58.78265625 189.79617188 -57.78125 189.30078125 C-51.94762935 185.85505599 -48.01295868 181.84375033 -44.2265625 176.2578125 C-43.49179687 175.18917969 -42.75703125 174.12054687 -42 173.01953125 C-39.70971707 169.3425861 -37.78884521 165.44487792 -35.8515625 161.5703125 C-53.6715625 161.5703125 -71.4915625 161.5703125 -89.8515625 161.5703125 C-89.8515625 140.1203125 -89.8515625 118.6703125 -89.8515625 96.5703125 C-46.2915625 96.5703125 -2.7315625 96.5703125 42.1484375 96.5703125 C42.1484375 158.31785506 42.1484375 158.31785506 37.8984375 173.8828125 C37.68227783 174.70418701 37.46611816 175.52556152 37.2434082 176.37182617 C30.72583979 200.26957702 18.31450616 219.90010085 1.1484375 237.5703125 C0.12556641 238.63185547 0.12556641 238.63185547 -0.91796875 239.71484375 C-16.0810785 254.28448541 -36.6952794 262.80215951 -56.8515625 267.5703125 C-58.28942336 267.964833 -59.72700138 268.36038878 -61.1640625 268.7578125 C-70.4102458 270.79510713 -79.8255403 270.78564383 -89.25341797 270.81054688 C-91.45188972 270.82020412 -93.64940434 270.8513034 -95.84765625 270.8828125 C-105.84393527 270.9573975 -115.1110846 269.78542822 -124.8515625 267.5703125 C-125.68977539 267.38210938 -126.52798828 267.19390625 -127.39160156 267 C-143.78223444 263.04710126 -159.33581459 255.6111596 -172.8515625 245.5703125 C-173.66238281 244.98121094 -174.47320313 244.39210938 -175.30859375 243.78515625 C-204.68645931 221.43140071 -222.75461038 188.64003643 -228.37890625 152.32421875 C-228.53488281 151.08542969 -228.69085937 149.84664062 -228.8515625 148.5703125 C-228.97854523 147.57726105 -228.97854523 147.57726105 -229.10809326 146.56414795 C-229.76616479 141.09992906 -230.03964318 135.70832268 -230.08984375 130.20703125 C-230.10195137 128.89893242 -230.10195137 128.89893242 -230.11430359 127.56440735 C-230.12805012 125.72484261 -230.13881383 123.88525337 -230.14672852 122.0456543 C-230.15816254 120.2067083 -230.17847545 118.36779319 -230.20825195 116.52905273 C-230.85164994 76.62040553 -215.49885909 37.3786402 -187.796875 8.54296875 C-172.88576234 -6.64499518 -155.73341882 -17.16472511 -135.8515625 -24.4296875 C-134.55025391 -24.90728516 -134.55025391 -24.90728516 -133.22265625 -25.39453125 C-90.15675524 -40.4488723 -34.5086613 -29.40327031 0 0 Z " fill="#FDEFD9" transform="translate(745.8515625,379.4296875)"/>
<path d="M0 0 C1.47045273 0.01013626 1.47045273 0.01013626 2.97061157 0.02047729 C18.00556379 0.14178736 32.28137149 0.95124489 46.6875 5.625 C47.49525879 5.88200684 48.30301758 6.13901367 49.13525391 6.40380859 C80.21143558 16.63689934 105.33006858 37.63733171 120.3371582 66.72021484 C127.6875 81.3793627 127.6875 81.3793627 127.6875 87.625 C111.46027824 94.34115861 95.22903372 101.04867055 78.93341064 107.59753418 C77.6547307 108.11171876 76.37652352 108.62708073 75.09881592 109.14367676 C62.9762541 114.04130204 62.9762541 114.04130204 56.6875 115.625 C56.28660156 114.81417969 55.88570312 114.00335938 55.47265625 113.16796875 C47.26182176 97.17452924 36.97328335 86.04000422 19.7578125 79.94140625 C4.29774706 75.58010374 -12.12067201 78.80463287 -26.1875 85.875 C-42.88825244 96.11812816 -51.92424432 112.49779193 -56.76953125 131.02734375 C-61.5521208 153.90807793 -59.39442076 177.48049054 -47.3125 197.625 C-37.98143232 211.34819595 -24.92296298 220.10379141 -8.6875 223.4375 C6.51838175 226.11459186 21.46793201 224.12859851 34.6875 215.625 C43.05461025 209.34966731 49.1521488 201.80057004 53.78564453 192.45922852 C54.14272491 191.74066177 54.4998053 191.02209503 54.8677063 190.28175354 C55.13823822 189.73502487 55.40877014 189.1882962 55.6875 188.625 C80.14623278 196.2784412 104.50705679 204.12944768 128.6875 212.625 C125.31786475 231.03596268 113.12463141 248.13905919 100.6875 261.625 C99.82382812 262.57117188 98.96015625 263.51734375 98.0703125 264.4921875 C82.71032117 280.58143658 62.51822782 292.76323791 40.6875 297.625 C39.92356934 297.80256836 39.15963867 297.98013672 38.37255859 298.16308594 C14.82725664 303.44885692 -13.0988481 305.12874873 -36.3125 297.625 C-37.8133823 297.18346639 -39.3147017 296.74341641 -40.81640625 296.3046875 C-72.64664865 286.66618888 -99.48825047 265.59688142 -117.3125 237.625 C-117.97894531 236.58214844 -118.64539063 235.53929687 -119.33203125 234.46484375 C-129.79086447 217.15722822 -135.56786541 199.01538843 -138.8828125 179.13842773 C-139.15823939 177.52733694 -139.47847421 175.92289917 -139.85449219 174.33227539 C-140.4857003 170.60121637 -140.49450436 166.89814247 -140.515625 163.125 C-140.52250336 162.29988419 -140.52938171 161.47476837 -140.53646851 160.62464905 C-140.55364539 157.95805465 -140.55992882 155.29164686 -140.5625 152.625 C-140.56417175 151.72393524 -140.56584351 150.82287048 -140.56756592 149.89450073 C-140.57054779 123.1938908 -140.57054779 123.1938908 -137.3125 110.625 C-136.3225 110.13 -136.3225 110.13 -135.3125 109.625 C-134.52793071 107.31690663 -133.84134893 105.03280368 -133.1875 102.6875 C-126.22224854 79.16843445 -114.14919069 58.43689935 -97.3125 40.625 C-96.56613281 39.81417969 -95.81976563 39.00335938 -95.05078125 38.16796875 C-88.18440035 30.96110615 -80.48908325 25.23642668 -72.3125 19.625 C-71.48234375 19.04878906 -70.6521875 18.47257812 -69.796875 17.87890625 C-64.64179714 14.55334029 -59.10022518 12.0357983 -53.5 9.5625 C-52.80874023 9.24579346 -52.11748047 8.92908691 -51.40527344 8.6027832 C-34.86282942 1.57531326 -17.78511807 -0.2467709 0 0 Z " fill="#FDEFD9" transform="translate(378.3125,348.375)"/>
<path d="M0 0 C-3.96 1.98 -7.92 3.96 -12 6 C-12 5.01 -12 4.02 -12 3 C-10.5682384 2.30062798 -9.12932968 1.61587282 -7.6875 0.9375 C-6.48673828 0.36322266 -6.48673828 0.36322266 -5.26171875 -0.22265625 C-3 -1 -3 -1 0 0 Z " fill="#E02028" transform="translate(734,452)"/>
<path d="M0 0 C0.66 0.33 1.32 0.66 2 1 C0.02 4.63 -1.96 8.26 -4 12 C-5 9 -5 9 -4.00390625 6.73828125 C-3.52824219 5.93777344 -3.05257812 5.13726562 -2.5625 4.3125 C-2.08941406 3.50425781 -1.61632812 2.69601562 -1.12890625 1.86328125 C-0.75636719 1.24839844 -0.38382813 0.63351562 0 0 Z " fill="#E11E26" transform="translate(608,451)"/>
</svg>
